<svg width="130" height="20" viewBox="0 0 130 20" fill="none" xmlns="http://www.w3.org/2000/svg">
<g clip-path="url(#clip0)">
<path fill-rule="evenodd" clip-rule="evenodd" d="M75.8333 12.8964V20H71.5V0H75.8333V12.8907L81.5071 5.78929H86.6515L80.5559 12.8936L86.6667 20H81.4775L75.8333 12.8964ZM101.833 10.39C101.833 9.32929 102.183 8.3 102.856 7.41714C103.427 6.64571 104.201 6.14786 105.174 5.92071C105.796 5.77643 106.984 5.71429 108.36 5.71429H111.928L111.431 8.55429H108.075C107.569 8.55429 106.161 8.92857 106.148 10.5064L106.141 16.5243L106.137 19.9729L101.833 19.9743V10.39ZM88.8333 5.71429H93.1667V19.925H88.8333V5.71429ZM127.833 5.71429V19.9486C127.833 19.9486 117.86 20.07 117.296 19.94C116.364 19.7157 115.621 19.3093 115.059 18.5529C114.432 17.7 114.111 16.7129 114.111 15.6164V5.71429H118.466V15.3064C118.466 15.7736 118.582 16.2329 118.982 16.5729C119.387 16.9107 119.992 17.14 120.46 17.14L123.501 17.1443V5.71429H127.833ZM46.5725 8.57571L44.6442 8.56714L39 8.58214L38.5537 5.71429H46.3125C47.6919 5.71429 48.5109 5.835 49.1775 6.07429C49.8579 6.29714 50.4942 6.63857 50.9788 7.10286C51.6114 7.72357 52.0238 8.29571 52.351 9.06857C52.5619 9.78571 52.7367 9.96714 52.7367 11.9107V20H42.0767C40.8937 20 39.8739 19.7507 39.0491 18.9679C38.2229 18.1879 37.8011 16.7729 37.8011 15.58C37.8011 14.32 38.2727 13.2471 39.0339 12.4371C39.7944 11.6079 40.4553 11.4429 41.605 11.4429L48.6453 11.4379L48.6337 10.6186C48.7009 9.845 47.8407 8.58857 46.5725 8.57571ZM43.0805 14.295C43.0805 14.295 42.3627 14.3029 41.9914 14.605C41.6419 14.9043 41.4122 15.3086 41.4122 15.8029C41.4122 16.2457 41.6339 16.6014 41.9683 16.8836C42.3186 17.17 42.5938 17.1421 43.0336 17.1421H48.6344L48.6149 14.2857L43.0805 14.295ZM30.2929 5.72143C31.9973 5.78929 33.4324 6.51786 34.5641 7.97143C35.6171 9.32571 36.1443 10.9521 36.1443 12.8164C36.1443 14.7607 35.6171 16.4364 34.58 17.855C33.4504 19.3871 32.0161 20 30.243 20H20.995V0H25.2778V5.72143H30.2929ZM28.8051 8.57143H25.2561V17.1429H28.9922C29.9441 17.1429 30.7089 16.7093 31.2867 15.8664C31.8774 15.0214 32.175 14.0236 32.175 12.9143C32.175 11.7729 31.863 10.7593 31.2217 9.88357C30.5861 9.00071 29.788 8.57143 28.8058 8.57143H28.8051ZM68.3612 7.41643C69.0018 8.29929 69.3247 9.27857 69.3247 10.3393L69.3333 20H65L65.0159 10.8486C65.0079 8.49357 62.6073 8.55857 62.6073 8.55857L59.2222 8.56429V20L54.8889 19.9829V5.69714L63.2623 5.71429C64.5804 5.71429 65.546 5.77571 66.1411 5.92071C67.0749 6.14786 67.8138 6.64571 68.3612 7.41643Z" fill="#223046"/>
<path fill-rule="evenodd" clip-rule="evenodd" d="M88.8334 0.714386H93.1667V4.28582H88.8334V0.714386Z" fill="#3498DB"/>
<path fill-rule="evenodd" clip-rule="evenodd" d="M95.3334 16.4286H99.6667V20H95.3334V16.4286Z" fill="#F57C00"/>
<path fill-rule="evenodd" clip-rule="evenodd" d="M9.38879 0H17.3332V4.28571H9.38879V0Z" fill="#039BE5"/>
<path fill-rule="evenodd" clip-rule="evenodd" d="M5.05554 7.85709H17.3333V12.1428H5.05554V7.85709Z" fill="#1BAF5D"/>
<path fill-rule="evenodd" clip-rule="evenodd" d="M0 15.7144H17.3333V20.0001H0V15.7144Z" fill="#F57C00"/>
</g>
<defs>
<clipPath id="clip0">
<rect width="130" height="20" fill="white"/>
</clipPath>
</defs>
</svg>
