<svg width="70" height="70" viewBox="0 0 70 70" fill="none" xmlns="http://www.w3.org/2000/svg">
<path d="M20.7626 32.3551C20.5547 32.083 20.2801 31.8692 19.9653 31.7342C19.6505 31.5992 19.3062 31.5478 18.9657 31.5848C18.6253 31.6218 18.3001 31.746 18.0216 31.9454C17.7432 32.1448 17.5209 32.4126 17.3762 32.7231L0.21673 67.0313C0.0604089 67.344 -0.0133975 67.6915 0.00231804 68.0407C0.0180336 68.3899 0.122749 68.7293 0.306523 69.0267C0.490297 69.324 0.747029 69.5695 1.05234 69.7398C1.35766 69.91 1.70142 69.9994 2.05099 69.9994H25.9447C26.3274 70.0083 26.7044 69.9059 27.03 69.7046C27.3557 69.5034 27.6158 69.2119 27.779 68.8656C32.9332 58.2151 29.8095 42.021 20.7626 32.3551Z" fill="url(#paint0_linear)"/>
<path d="M33.348 1.15005C29.0724 7.72892 26.5807 15.3064 26.1175 23.1389C25.6543 30.9714 27.2356 38.7898 30.706 45.8267L42.2254 68.8655C42.3958 69.2062 42.6576 69.4927 42.9815 69.693C43.3055 69.8932 43.6788 69.9993 44.0597 69.9994H67.9491C68.2987 69.9993 68.6425 69.9099 68.9478 69.7397C69.2531 69.5695 69.5098 69.324 69.6936 69.0266C69.8774 68.7292 69.9821 68.3898 69.9978 68.0406C70.0135 67.6914 69.9397 67.344 69.7834 67.0313C69.7834 67.0313 37.6441 2.74511 36.8363 1.13718C36.6767 0.809883 36.4279 0.534228 36.1187 0.341836C35.8095 0.149444 35.4523 0.0481078 35.0881 0.0494517C34.724 0.0507955 34.3675 0.154765 34.0598 0.349433C33.752 0.544102 33.5053 0.821585 33.348 1.15005Z" fill="#2684FF"/>
<defs>
<linearGradient id="paint0_linear" x1="30.1667" y1="37.6498" x2="12.0579" y2="69.0158" gradientUnits="userSpaceOnUse">
<stop stop-color="#0052CC"/>
<stop offset="0.923" stop-color="#2684FF"/>
</linearGradient>
</defs>
</svg>
