<svg width="70" height="70" viewBox="0 0 70 70" fill="none" xmlns="http://www.w3.org/2000/svg">
<path d="M2.53813 52.7167C1.81416 53.8973 1.00108 55.2673 0.310522 56.3588C0.0133953 56.8609 -0.0748836 57.4596 0.064659 58.0261C0.204202 58.5926 0.560427 59.0817 1.05677 59.3884L15.5362 68.2988C15.7878 68.4542 16.0679 68.5579 16.36 68.6039C16.6521 68.6499 16.9504 68.6372 17.2376 68.5667C17.5248 68.4962 17.795 68.3693 18.0326 68.1932C18.2702 68.0172 18.4704 67.7956 18.6215 67.5414C19.2006 66.5724 19.9469 65.3138 20.76 63.9661C26.4961 54.4988 32.2656 55.6571 42.6685 60.6247L57.0254 67.4523C57.2946 67.5804 57.5867 67.6532 57.8844 67.6664C58.1822 67.6795 58.4796 67.6328 58.759 67.5289C59.0384 67.4251 59.2941 67.2662 59.511 67.0617C59.7278 66.8572 59.9015 66.6113 60.0216 66.3385L66.916 50.7453C67.1501 50.21 67.1646 49.6041 66.9562 49.0583C66.7479 48.5124 66.3335 48.0703 65.8022 47.8271C62.7727 46.4014 56.747 43.5612 51.3227 40.9438C31.8089 31.4653 15.2244 32.0779 2.53813 52.7167Z" fill="url(#paint0_linear)"/>
<path d="M67.4619 17.3311C68.1859 16.1505 68.9989 14.7805 69.6895 13.689C69.9866 13.1869 70.0749 12.5883 69.9354 12.0218C69.7958 11.4553 69.4396 10.9661 68.9433 10.6595L54.4638 1.74902C54.2103 1.57829 53.9244 1.46154 53.6239 1.40605C53.3233 1.35055 53.0146 1.3575 52.7168 1.42645C52.4191 1.4954 52.1387 1.62489 51.8931 1.80685C51.6476 1.9888 51.4421 2.21935 51.2895 2.48413C50.7103 3.45314 49.964 4.71174 49.151 6.05944C43.4149 15.5268 37.6454 14.3684 27.2424 9.40085L12.93 2.60665C12.6609 2.47855 12.3688 2.40576 12.071 2.3926C11.7732 2.37944 11.4759 2.42618 11.1965 2.53004C10.9171 2.6339 10.6614 2.79278 10.4445 2.99725C10.2276 3.20173 10.054 3.44765 9.93391 3.72045L3.03946 19.3137C2.80533 19.849 2.79088 20.4549 2.99922 21.0007C3.20756 21.5466 3.62201 21.9887 4.15327 22.2319C7.18281 23.6575 13.2085 26.4977 18.6327 29.1152C38.1911 38.5825 54.7757 37.9477 67.4619 17.3311Z" fill="url(#paint1_linear)"/>
<defs>
<linearGradient id="paint0_linear" x1="66.5262" y1="72.8988" x2="22.7203" y2="47.7268" gradientUnits="userSpaceOnUse">
<stop offset="0.18" stop-color="#0052CC"/>
<stop offset="1" stop-color="#2684FF"/>
</linearGradient>
<linearGradient id="paint1_linear" x1="-18472.8" y1="52546.8" x2="-16956.2" y2="54287.3" gradientUnits="userSpaceOnUse">
<stop offset="0.18" stop-color="#0052CC"/>
<stop offset="1" stop-color="#2684FF"/>
</linearGradient>
</defs>
</svg>
