<svg width="70" height="70" viewBox="0 0 70 70" fill="none" xmlns="http://www.w3.org/2000/svg">
<path d="M42.5195 70H16.4062C10.3751 70 5.46875 65.0936 5.46875 59.0625V22.0117C5.46875 15.9806 10.3751 11.0742 16.4062 11.0742H42.5195C48.5506 11.0742 53.457 15.9806 53.457 22.0117V59.0625C53.457 65.0936 48.5506 70 42.5195 70ZM16.4062 16.543C13.391 16.543 10.9375 18.9964 10.9375 22.0117V59.0625C10.9375 62.0778 13.391 64.5312 16.4062 64.5312H42.5195C45.5348 64.5312 47.9883 62.0778 47.9883 59.0625V22.0117C47.9883 18.9964 45.5348 16.543 42.5195 16.543H16.4062ZM64.3945 52.2266V10.9375C64.3945 4.90639 59.4881 0 53.457 0H23.1055C21.5952 0 20.3711 1.22406 20.3711 2.73438C20.3711 4.24469 21.5952 5.46875 23.1055 5.46875H53.457C56.4723 5.46875 58.9258 7.92221 58.9258 10.9375V52.2266C58.9258 53.7369 60.1498 54.9609 61.6602 54.9609C63.1705 54.9609 64.3945 53.7369 64.3945 52.2266Z" fill="#29B6F6"/>
</svg>
