<svg width="70" height="70" viewBox="0 0 70 70" fill="none" xmlns="http://www.w3.org/2000/svg">
<g clip-path="url(#clip0)">
<path d="M66.1361 1.23706e-07H3.8607C1.72821 0.00106824 -0.000533934 1.73088 1.23706e-07 3.86391V66.1393C0.00106824 68.2718 1.73088 70.0005 3.86391 70H66.1361C68.2697 70.0005 69.9995 68.2713 70 66.1377C70 66.1372 70 66.1366 70 66.1361V3.8607C69.9989 1.72821 68.2691 -0.000533934 66.1361 1.23706e-07Z" fill="#4267B2"/>
<path d="M48.3301 70V42.9297H57.4561L58.8232 32.334H48.3301V25.5856C48.3301 22.5249 49.1798 20.4394 53.5686 20.4394H59.1309V10.9882C58.1631 10.8595 54.8429 10.5717 50.9795 10.5717C42.9131 10.5717 37.3926 15.4935 37.3926 24.5362V32.334H28.3008V42.9297H37.3926V70H48.3301Z" fill="white"/>
</g>
<defs>
<clipPath id="clip0">
<rect width="70" height="70" fill="white"/>
</clipPath>
</defs>
</svg>
