<svg width="70" height="70" viewBox="0 0 70 70" fill="none" xmlns="http://www.w3.org/2000/svg">
<path d="M68.0412 33.0412L37.9198 2.91975L35 0L12.3258 22.6742L1.95885 33.0412C1.43976 33.5609 1.14819 34.2654 1.14819 35C1.14819 35.7346 1.43976 36.4391 1.95885 36.9588L22.6743 57.6742L35 70L57.6743 47.3258L58.0254 46.9747L68.0412 36.9588C68.5603 36.4391 68.8519 35.7346 68.8519 35C68.8519 34.2654 68.5603 33.5609 68.0412 33.0412ZM35 45.3485L24.6516 35L35 24.6515L45.3485 35L35 45.3485Z" fill="#2684FF"/>
<path d="M35 24.6515C31.7452 21.3964 29.9106 16.9857 29.8968 12.3826C29.8829 7.77942 31.691 3.35778 34.9261 0.0831299L12.2795 22.7204L24.6053 35.0462L35 24.6515Z" fill="url(#paint0_linear)"/>
<path d="M45.3762 34.9723L35 45.3485C36.6193 46.9668 37.9038 48.8883 38.7802 51.0032C39.6566 53.1181 40.1076 55.3849 40.1076 57.6742C40.1076 59.9635 39.6566 62.2304 38.7802 64.3453C37.9038 66.4602 36.6193 68.3817 35 70L57.702 47.2981L45.3762 34.9723Z" fill="url(#paint1_linear)"/>
<defs>
<linearGradient id="paint0_linear" x1="33.152" y1="14.1829" x2="18.7011" y2="28.6338" gradientUnits="userSpaceOnUse">
<stop offset="0.18" stop-color="#0052CC"/>
<stop offset="1" stop-color="#2684FF"/>
</linearGradient>
<linearGradient id="paint1_linear" x1="915.382" y1="2146.44" x2="1414.49" y2="1822.97" gradientUnits="userSpaceOnUse">
<stop offset="0.18" stop-color="#0052CC"/>
<stop offset="1" stop-color="#2684FF"/>
</linearGradient>
</defs>
</svg>
