<svg width="70" height="70" viewBox="0 0 70 70" fill="none" xmlns="http://www.w3.org/2000/svg">
<path d="M57.7637 13.5352V10.2539C57.7637 4.5999 53.1638 0 47.5098 0H22.3535C16.6995 0 12.0996 4.5999 12.0996 10.2539V13.5352H57.7637Z" fill="#29B6F6"/>
<path d="M16.2012 43.6133V60.293V63.8477V65.8984C16.2012 68.1636 18.0374 70 20.3027 70H49.5605C51.8258 70 53.6621 68.1636 53.6621 65.8984V63.8477V60.293V43.6133H16.2012ZM40.4004 61.1133H29.4629C28.3303 61.1133 27.4121 60.1951 27.4121 59.0625C27.4121 57.9299 28.3303 57.0117 29.4629 57.0117H40.4004C41.533 57.0117 42.4512 57.9299 42.4512 59.0625C42.4512 60.1951 41.533 61.1133 40.4004 61.1133ZM40.4004 52.3633H29.4629C28.3303 52.3633 27.4121 51.4451 27.4121 50.3125C27.4121 49.1799 28.3303 48.2617 29.4629 48.2617H40.4004C41.533 48.2617 42.4512 49.1799 42.4512 50.3125C42.4512 51.4451 41.533 52.3633 40.4004 52.3633Z" fill="#29B6F6"/>
<path d="M59.6777 17.6367H10.3223C4.66826 17.6367 0.0683594 22.2366 0.0683594 27.8906V44.2969C0.0683594 49.9509 4.66826 54.5508 10.3223 54.5508H12.0996V43.6133H10.8691C9.73656 43.6133 8.81836 42.6951 8.81836 41.5625C8.81836 40.4299 9.73656 39.5117 10.8691 39.5117H14.1504H55.7129H58.9941C60.1267 39.5117 61.0449 40.4299 61.0449 41.5625C61.0449 42.6951 60.1267 43.6133 58.9941 43.6133H57.7637V54.5508H59.6777C65.3317 54.5508 69.9316 49.9509 69.9316 44.2969V27.8906C69.9316 22.2366 65.3317 17.6367 59.6777 17.6367ZM17.4316 30.4883H10.8691C9.73656 30.4883 8.81836 29.5701 8.81836 28.4375C8.81836 27.3049 9.73656 26.3867 10.8691 26.3867H17.4316C18.5642 26.3867 19.4824 27.3049 19.4824 28.4375C19.4824 29.5701 18.5642 30.4883 17.4316 30.4883Z" fill="#29B6F6"/>
</svg>
