<svg width="70" height="70" viewBox="0 0 70 70" fill="none" xmlns="http://www.w3.org/2000/svg">
<path d="M40.3131 27.6304L59.3585 27.7487C59.9089 27.7513 60.4478 27.9068 60.9149 28.1979C61.382 28.4891 61.7589 28.9044 62.0035 29.3974C62.2481 29.8905 62.3509 30.4419 62.3002 30.9899C62.2495 31.538 62.0474 32.0612 61.7164 32.501L33.6127 70C29.3742 66.829 26.5678 62.1053 25.8099 56.8665C25.052 51.6277 26.4046 46.3023 29.5705 42.0601L40.3131 27.6304Z" fill="url(#paint0_linear)"/>
<path d="M29.5615 42.0236L10.6345 41.9053C10.0856 41.9015 9.54856 41.7456 9.083 41.4549C8.61744 41.1642 8.24161 40.7501 7.99729 40.2586C7.75296 39.7672 7.64971 39.2176 7.69901 38.6709C7.74831 38.1243 7.94823 37.602 8.27655 37.1622L36.0981 0C40.3365 3.17097 43.143 7.89469 43.9009 13.1335C44.6588 18.3723 43.3062 23.6977 40.1402 27.9399L29.5615 42.0236Z" fill="#2684FF"/>
<defs>
<linearGradient id="paint0_linear" x1="39.5679" y1="30.4324" x2="47.5683" y2="54.6253" gradientUnits="userSpaceOnUse">
<stop stop-color="#0052CC"/>
<stop offset="1" stop-color="#2684FF"/>
</linearGradient>
</defs>
</svg>
