<svg width="24" height="24" viewBox="0 0 24 24" fill="none" xmlns="http://www.w3.org/2000/svg">
<path d="M23.309 14.5459C25.047 6.73591 18.205 -0.359091 10.17 1.00291C5.808 -1.70409 0 1.35491 0 6.54491C0 7.75191 0.333 8.88191 0.912 9.85591C-0.703 17.6839 6.195 24.6769 14.223 23.2219C15.159 23.7169 16.227 23.9989 17.362 23.9989C22.311 23.9989 25.48 18.8659 23.309 14.5459ZM12.096 19.8779C9.754 19.8779 7.466 19.3129 6.112 17.3789C4.094 14.5249 6.755 13.0969 8.061 14.1849C9.151 15.1039 8.809 17.3269 12.01 17.3269C13.421 17.3269 15.163 16.7249 15.163 15.3259C15.163 12.5109 8.918 13.8429 6.435 10.7739C5.523 9.64991 5.351 7.66691 6.471 6.22891C8.423 3.71691 14.151 3.56391 16.614 5.46091C18.888 7.22091 18.274 9.55691 16.439 9.55691C14.232 9.55691 15.392 6.66891 11.829 6.66891C9.246 6.66891 8.23 8.50591 10.049 9.39991C12.47 10.6019 18.799 10.2269 18.799 15.0029C18.791 18.3599 15.552 19.8779 12.096 19.8779Z" fill="#03A9F4"/>
</svg>
