<svg width="70" height="70" viewBox="0 0 70 70" fill="none" xmlns="http://www.w3.org/2000/svg">
<g clip-path="url(#clip0)">
<path d="M25.7919 36.8988C21.7319 36.8988 18.439 40.1917 18.439 44.2517V62.6442C18.439 66.7042 21.7319 69.9971 25.7919 69.9971C29.8519 69.9971 33.1448 66.7042 33.1448 62.6442V44.2517C33.1419 40.1917 29.849 36.8988 25.7919 36.8988Z" fill="#E91E63"/>
<path d="M0.0556641 44.2517C0.0556641 48.3146 3.3515 51.6104 7.41441 51.6104C11.4773 51.6104 14.7732 48.3146 14.7732 44.2517V36.8929H7.42025C7.41733 36.8929 7.41733 36.8929 7.41441 36.8929C3.3515 36.8929 0.0556641 40.1888 0.0556641 44.2517Z" fill="#E91E63"/>
<path d="M25.8006 -0.00280762C25.7977 -0.00280762 25.7948 -0.00280762 25.7918 -0.00280762C21.7289 -0.00280762 18.4331 3.29303 18.4331 7.35594C18.4331 11.4189 21.7289 14.7147 25.7918 14.7147H33.1448V7.35594C33.1448 7.35303 33.1448 7.34719 33.1448 7.34136C33.1418 3.28428 29.8548 -0.00280762 25.8006 -0.00280762Z" fill="#00BCD4"/>
<path d="M7.36461 33.1624H25.7921C29.855 33.1624 33.1509 29.8666 33.1509 25.8037C33.1509 21.7408 29.855 18.4449 25.7921 18.4449H7.36461C3.30169 18.4449 0.00585938 21.7408 0.00585938 25.8037C0.00585938 29.8666 3.30169 33.1624 7.36461 33.1624Z" fill="#00BCD4"/>
<path d="M62.5829 18.4421C58.5259 18.4421 55.2388 21.7292 55.2388 25.7863V25.8009V33.1596H62.5917C66.6546 33.1596 69.9504 29.8638 69.9504 25.8009C69.9504 21.738 66.6546 18.4421 62.5917 18.4421C62.5888 18.4421 62.5859 18.4421 62.5829 18.4421Z" fill="#4CAF50"/>
<path d="M36.8696 7.35573V25.8036C36.8696 29.8636 40.1625 33.1566 44.2225 33.1566C48.2825 33.1566 51.5755 29.8636 51.5755 25.8036V7.35573C51.5755 3.29573 48.2825 0.00280762 44.2225 0.00280762C40.1625 0.00280762 36.8696 3.29573 36.8696 7.35573Z" fill="#4CAF50"/>
<path d="M51.573 62.6383C51.573 58.5783 48.2801 55.2854 44.2201 55.2854H36.8672V62.6442C36.8701 66.7013 40.1601 69.9913 44.2201 69.9913C48.2801 69.9913 51.573 66.6983 51.573 62.6383Z" fill="#FF9800"/>
<path d="M62.6475 36.8929H44.2201C40.1572 36.8929 36.8613 40.1888 36.8613 44.2517C36.8613 48.3146 40.1572 51.6104 44.2201 51.6104H62.6475C66.7104 51.6104 70.0063 48.3146 70.0063 44.2517C70.0063 40.1888 66.7104 36.8929 62.6475 36.8929Z" fill="#FF9800"/>
</g>
<defs>
<clipPath id="clip0">
<rect width="70" height="70" fill="white"/>
</clipPath>
</defs>
</svg>
