<svg width="70" height="70" viewBox="0 0 70 70" fill="none" xmlns="http://www.w3.org/2000/svg">
<g clip-path="url(#clip0)">
<path d="M65.5395 0H4.4704C2.00056 0 0 2.00056 0 4.46546V65.5345C0 67.9994 2.00056 70 4.4704 70H65.5345C67.9994 70 70 67.9994 70 65.5345V4.46546C70.0049 1.99562 68.0044 0 65.5395 0ZM58.0658 42.654C59.3451 43.9581 62.1212 46.1464 61.6174 48.3741C61.1531 50.4192 58.1003 49.6733 55.1365 49.7918C51.7529 49.9351 49.7474 50.0092 47.7122 48.3741C46.7539 47.5986 46.1908 46.6798 45.272 45.6524C44.4372 44.7237 43.3851 43.0591 41.9526 43.1233C39.379 43.2517 40.1842 46.8379 39.2703 49.283C24.9651 51.5355 19.2202 42.6985 14.1521 34.1232C11.6971 29.969 8.15045 21.0479 8.15045 21.0479L18.2669 21.0133C18.2669 21.0133 21.5122 26.9162 22.3717 28.4377C23.1028 29.7318 23.908 30.7593 24.7378 31.9152C25.4343 32.8735 26.5359 34.7505 27.7412 34.5974C29.7022 34.3455 30.0579 26.7384 28.8427 24.1895C28.3586 23.1572 27.1978 22.7966 25.9975 22.4458C26.4025 19.8871 37.3439 19.3536 39.1123 21.3394C41.6809 24.2241 37.334 32.256 40.851 34.5974C45.7907 32.009 50.0092 21.1714 50.0092 21.1714L61.8545 21.2455C61.8545 21.2455 60.0021 27.1039 58.0608 29.7022C56.9296 31.2236 53.1755 34.6122 53.3237 37.1265C53.4422 39.1172 56.495 41.0536 58.0658 42.654Z" fill="#0083EC"/>
</g>
<defs>
<clipPath id="clip0">
<rect width="70" height="70" fill="white"/>
</clipPath>
</defs>
</svg>
