<svg width="70" height="70" viewBox="0 0 70 70" fill="none" xmlns="http://www.w3.org/2000/svg">
<path d="M69.9807 12.4686L55.9993 12.4286C55.9964 12.9362 55.995 13.5445 55.9871 13.9429C57.1751 13.9707 60.215 14.5297 61.1681 17.032L47.7756 47.9434C47.1195 46.4091 40.8913 32.5741 40.1802 30.795L46.6569 17.3604C47.9941 15.3164 50.5513 13.9985 53.0237 13.9029L53.0165 12.4979L39.5655 12.4857C39.5334 12.842 39.5662 13.5909 39.517 13.9628C43.3115 14.0657 44.6679 14.9152 43.7584 17.1812C42.2577 20.5909 39.1108 27.0505 38.4954 28.2291C36.5706 24.2062 35.347 21.1099 33.2516 16.7607C32.3478 14.7453 34.3432 13.9607 36.4535 13.9022V12.4879L20.8758 12.4401C20.8872 13.104 20.8608 13.476 20.8608 13.9614C23.0318 13.9943 25.8497 14.2263 26.9734 16.1167C28.4633 19.0174 33.4301 30.5337 34.9329 33.6178C33.016 37.2967 28.3598 45.9979 26.6914 49.262C24.3012 43.9575 15.46 23.0689 12.9612 17.6774C12.0303 15.38 15.6256 14.0528 17.706 13.9557L17.7195 12.4222L0 12.4208C0.00356961 12.882 0.0192759 13.6416 0.0207037 13.9821C2.89424 13.9557 7.09424 18.6747 8.29362 21.6089C13.4653 33.6107 18.8018 45.5424 23.9485 57.5542C23.9499 57.5749 25.5591 57.5963 25.577 57.5599C28.9445 50.6684 32.8797 43.4264 36.4328 36.4564L45.3968 57.5706C45.4004 57.5734 46.8832 57.582 46.8911 57.5756C52.5753 44.5851 61.0924 24.651 63.8781 18.3577C65.0118 15.6684 66.9087 14.0285 69.9771 13.9357L70 12.5393L69.9807 12.4686Z" fill="black"/>
</svg>
