<svg width="70" height="70" viewBox="0 0 70 70" fill="none" xmlns="http://www.w3.org/2000/svg">
<path fill-rule="evenodd" clip-rule="evenodd" d="M36.8645 14.8771C36.1015 15.0017 30.5723 16.2439 30.5723 25.8606C30.5723 30.2508 31.6738 32.8952 32.9391 34.4852C34.1577 36.0157 36.0472 36.8565 38.0034 36.8565H41.4263V14.8646H37.0269C36.9723 14.8646 36.9192 14.8679 36.8645 14.8771Z" fill="#DD0000"/>
<path fill-rule="evenodd" clip-rule="evenodd" d="M0 0V70H70V0H0ZM46.7106 59.2308H41.57V41.1408H37.9518L29.764 59.2308H23.2894L33.5723 40.6646C33.5723 40.6646 24.9089 36.6662 24.9089 26.764C24.9089 16.8632 31.8126 10.7692 37.6071 10.7692H46.7106V59.2308Z" fill="#DD0000"/>
</svg>
